<svg xmlns="http://www.w3.org/2000/svg" width="18" height="18" viewBox="0 0 18 18">
  <metadata><?xpacket begin="﻿" id="W5M0MpCehiHzreSzNTczkc9d"?>
<x:xmpmeta xmlns:x="adobe:ns:meta/" x:xmptk="Adobe XMP Core 5.6-c142 79.160924, 2017/07/13-01:06:39        ">
   <rdf:RDF xmlns:rdf="http://www.w3.org/1999/02/22-rdf-syntax-ns#">
      <rdf:Description rdf:about=""/>
   </rdf:RDF>
</x:xmpmeta>
                                                                                                    
                                                                                                    
                                                                                                    
                                                                                                    
                                                                                                    
                                                                                                    
                                                                                                    
                                                                                                    
                                                                                                    
                                                                                                    
                                                                                                    
                                                                                                    
                                                                                                    
                                                                                                    
                                                                                                    
                                                                                                    
                                                                                                    
                                                                                                    
                                                                                                    
                                                                                                    
                           
<?xpacket end="w"?></metadata>
<defs>
    <style>
      .cls-1 {
        fill: #ffffff;
        fill-rule: evenodd;
      }
    </style>
  </defs>
  <path id="E-mail" class="cls-1" d="M12.075,9.522L12.8,5.952l0.119-.587-0.6-.018C12,5.338,11.688,5.333,11.4,5.333c-3.357,0-4.644.626-5.542,1.565a6.5,6.5,0,0,0-1.7,4.113c0,1.526,1.315,2.634,3.128,2.634A4.185,4.185,0,0,0,9.911,12.8a3.3,3.3,0,0,0,2.422.841,4.374,4.374,0,0,0,3.816-2.12,7.245,7.245,0,0,0,1.073-3.78,6.478,6.478,0,0,0-2.756-5.456A9.064,9.064,0,0,0,9.332.662,8.713,8.713,0,0,0,2.3,3.943,10.744,10.744,0,0,0,0,10.585a6.761,6.761,0,0,0,2.609,5.58,8.9,8.9,0,0,0,5.424,1.716A15.52,15.52,0,0,0,15.369,16l0.418-.226-0.2-.432L14.894,13.85l-0.223-.48-0.466.248a12.557,12.557,0,0,1-6.027,1.764A5.462,5.462,0,0,1,4.4,14.111a4.569,4.569,0,0,1-1.377-3.479c0-4.9,3.086-7.471,6.134-7.471a5.238,5.238,0,0,1,3.672,1.3A4.53,4.53,0,0,1,14.2,7.863a5.733,5.733,0,0,1-.433,2.124,1.587,1.587,0,0,1-1.4,1.158,0.391,0.391,0,0,1-.479-0.443,7.58,7.58,0,0,1,.153-0.978C12.051,9.649,12.065,9.579,12.075,9.522ZM9.423,7.954c-0.635,2.634-1.434,3.192-2,3.192a0.215,0.215,0,0,1-.249-0.253,4.141,4.141,0,0,1,1.149-2.5A2.021,2.021,0,0,1,9.423,7.954Z"/>
</svg>
