<svg xmlns="http://www.w3.org/2000/svg" width="40" height="51" viewBox="0 0 40 51">
  <metadata><?xpacket begin="﻿" id="W5M0MpCehiHzreSzNTczkc9d"?>
<x:xmpmeta xmlns:x="adobe:ns:meta/" x:xmptk="Adobe XMP Core 5.6-c142 79.160924, 2017/07/13-01:06:39        ">
   <rdf:RDF xmlns:rdf="http://www.w3.org/1999/02/22-rdf-syntax-ns#">
      <rdf:Description rdf:about=""/>
   </rdf:RDF>
</x:xmpmeta>
                                                                                                    
                                                                                                    
                                                                                                    
                                                                                                    
                                                                                                    
                                                                                                    
                                                                                                    
                                                                                                    
                                                                                                    
                                                                                                    
                                                                                                    
                                                                                                    
                                                                                                    
                                                                                                    
                                                                                                    
                                                                                                    
                                                                                                    
                                                                                                    
                                                                                                    
                                                                                                    
                           
<?xpacket end="w"?></metadata>
<defs>
    <style>
      .cls-1 {
        fill: #fff;
        fill-rule: evenodd;
      }
    </style>
  </defs>
  <path class="cls-1" d="M19.339,0.4A20.092,20.092,0,0,0,.195,18.566a20.438,20.438,0,0,0,.267,5.785h0s0.031,0.217.133,0.631a20.305,20.305,0,0,0,1.343,3.995c2,4.781,6.624,12.781,17,21.485a1.721,1.721,0,0,0,2.215,0c10.377-8.693,15-16.693,17.011-21.495a19.44,19.44,0,0,0,1.343-3.995c0.092-.4.133-0.631,0.133-0.631h0A20.421,20.421,0,0,0,40,20.522,20.027,20.027,0,0,0,19.339.4ZM20.046,30.54a9.78,9.78,0,1,1,9.69-9.78A9.734,9.734,0,0,1,20.046,30.54Z"/>
</svg>
