<svg xmlns="http://www.w3.org/2000/svg" width="19" height="19" viewBox="0 0 19 19">
  <metadata><?xpacket begin="﻿" id="W5M0MpCehiHzreSzNTczkc9d"?>
<x:xmpmeta xmlns:x="adobe:ns:meta/" x:xmptk="Adobe XMP Core 5.6-c142 79.160924, 2017/07/13-01:06:39        ">
   <rdf:RDF xmlns:rdf="http://www.w3.org/1999/02/22-rdf-syntax-ns#">
      <rdf:Description rdf:about=""/>
   </rdf:RDF>
</x:xmpmeta>
                                                                                                    
                                                                                                    
                                                                                                    
                                                                                                    
                                                                                                    
                                                                                                    
                                                                                                    
                                                                                                    
                                                                                                    
                                                                                                    
                                                                                                    
                                                                                                    
                                                                                                    
                                                                                                    
                                                                                                    
                                                                                                    
                                                                                                    
                                                                                                    
                                                                                                    
                                                                                                    
                           
<?xpacket end="w"?></metadata>
<defs>
    <style>
      .cls-1 {
        fill: #ffffff;
        fill-rule: evenodd;
      }
    </style>
  </defs>
  <path id="Telefon" class="cls-1" d="M18.3,14.357a2.148,2.148,0,0,0-.954-0.665q-0.238-.138-0.677-0.376t-0.8-.44q-0.358-.2-0.672-0.389c-0.033-.025-0.138-0.1-0.314-0.22A3.543,3.543,0,0,0,14.44,12a0.818,0.818,0,0,0-.358-0.088,1.042,1.042,0,0,0-.627.357,6.139,6.139,0,0,0-.69.778,7.545,7.545,0,0,1-.665.778,0.955,0.955,0,0,1-.578.358,0.849,0.849,0,0,1-.283-0.063c-0.113-.042-0.2-0.078-0.257-0.106s-0.159-.088-0.3-0.176-0.222-.136-0.239-0.144a13.181,13.181,0,0,1-2.95-2.184,13.187,13.187,0,0,1-2.184-2.95Q5.3,8.533,5.164,8.319t-0.176-.3A2.7,2.7,0,0,1,4.882,7.76a0.849,0.849,0,0,1-.063-0.282A0.956,0.956,0,0,1,5.177,6.9a7.591,7.591,0,0,1,.778-0.665,6.115,6.115,0,0,0,.778-0.69,1.042,1.042,0,0,0,.358-0.628A0.82,0.82,0,0,0,7,4.56a3.481,3.481,0,0,0-.27-0.446Q6.551,3.85,6.513,3.8,6.325,3.487,6.124,3.129t-0.439-.8Q5.446,1.892,5.308,1.654A2.151,2.151,0,0,0,4.643.7,0.7,0.7,0,0,0,4.379.662a4.132,4.132,0,0,0-.885.125,4.98,4.98,0,0,0-.86.264A3.364,3.364,0,0,0,1.3,2.583a4.866,4.866,0,0,0-.64,2.335,4.851,4.851,0,0,0,.044.659A5.419,5.419,0,0,0,.865,6.3q0.113,0.4.182,0.6T1.3,7.591q0.188,0.5.226,0.615a11.366,11.366,0,0,0,1.042,2.2,18.617,18.617,0,0,0,2.705,3.32A18.617,18.617,0,0,0,8.6,16.429a11.385,11.385,0,0,0,2.2,1.042q0.113,0.037.615,0.226t0.7,0.257c0.13,0.046.328,0.107,0.6,0.182a5.482,5.482,0,0,0,.722.157,4.923,4.923,0,0,0,.659.044,4.87,4.87,0,0,0,2.335-.64,3.366,3.366,0,0,0,1.531-1.331,4.94,4.94,0,0,0,.264-0.86,4.126,4.126,0,0,0,.126-0.885A0.7,0.7,0,0,0,18.3,14.357Z"/>
</svg>
