<svg xmlns="http://www.w3.org/2000/svg" width="27" height="26" viewBox="0 0 27 26">
  <metadata><?xpacket begin="﻿" id="W5M0MpCehiHzreSzNTczkc9d"?>
<x:xmpmeta xmlns:x="adobe:ns:meta/" x:xmptk="Adobe XMP Core 5.6-c142 79.160924, 2017/07/13-01:06:39        ">
   <rdf:RDF xmlns:rdf="http://www.w3.org/1999/02/22-rdf-syntax-ns#">
      <rdf:Description rdf:about=""/>
   </rdf:RDF>
</x:xmpmeta>
                                                                                                    
                                                                                                    
                                                                                                    
                                                                                                    
                                                                                                    
                                                                                                    
                                                                                                    
                                                                                                    
                                                                                                    
                                                                                                    
                                                                                                    
                                                                                                    
                                                                                                    
                                                                                                    
                                                                                                    
                                                                                                    
                                                                                                    
                                                                                                    
                                                                                                    
                                                                                                    
                           
<?xpacket end="w"?></metadata>
<defs>
    <style>
      .cls-1 {
        fill: #eb292d;
        fill-rule: evenodd;
      }
    </style>
  </defs>
  <path id="Twitter" class="cls-1" d="M13.5,0.27A12.73,12.73,0,1,0,26.23,13,12.744,12.744,0,0,0,13.5.27Zm5.679,9.816c0.006,0.126.009,0.254,0.009,0.381a8.333,8.333,0,0,1-12.828,7.02A5.92,5.92,0,0,0,10.7,16.273,2.933,2.933,0,0,1,7.96,14.238a2.85,2.85,0,0,0,.551.053,2.951,2.951,0,0,0,.772-0.1,2.931,2.931,0,0,1-2.35-2.873c0-.012,0-0.025,0-0.037a2.916,2.916,0,0,0,1.327.366,2.934,2.934,0,0,1-.907-3.912A8.321,8.321,0,0,0,13.392,10.8a2.932,2.932,0,0,1,4.993-2.673,5.844,5.844,0,0,0,1.861-.711,2.94,2.94,0,0,1-1.289,1.621,5.83,5.83,0,0,0,1.683-.461A5.925,5.925,0,0,1,19.179,10.086Z"/>
</svg>
